<svg width="38" height="30" viewBox="0 0 38 30" fill="none" xmlns="http://www.w3.org/2000/svg">
<path d="M37.05 20.625H36.1V14.291C36.1 13.5469 35.7972 12.832 35.2628 12.3047L29.3312 6.45117C28.7969 5.92383 28.0725 5.625 27.3184 5.625H24.7V2.8125C24.7 1.25977 23.4234 0 21.85 0H6.65C5.07656 0 3.8 1.25977 3.8 2.8125V5.625H0.475C0.21375 5.625 0 5.83594 0 6.09375V7.03125C0 7.28906 0.21375 7.5 0.475 7.5H16.625C16.8862 7.5 17.1 7.71094 17.1 7.96875V8.90625C17.1 9.16406 16.8862 9.375 16.625 9.375H2.375C2.11375 9.375 1.9 9.58594 1.9 9.84375V10.7812C1.9 11.0391 2.11375 11.25 2.375 11.25H14.725C14.9862 11.25 15.2 11.4609 15.2 11.7188V12.6562C15.2 12.9141 14.9862 13.125 14.725 13.125H0.475C0.21375 13.125 0 13.3359 0 13.5938V14.5312C0 14.7891 0.21375 15 0.475 15H12.825C13.0862 15 13.3 15.2109 13.3 15.4688V16.4062C13.3 16.6641 13.0862 16.875 12.825 16.875H3.8V24.375C3.8 27.4805 6.35312 30 9.5 30C12.6469 30 15.2 27.4805 15.2 24.375H22.8C22.8 27.4805 25.3531 30 28.5 30C31.6469 30 34.2 27.4805 34.2 24.375H37.05C37.5725 24.375 38 23.9531 38 23.4375V21.5625C38 21.0469 37.5725 20.625 37.05 20.625ZM9.5 27.1875C7.92656 27.1875 6.65 25.9277 6.65 24.375C6.65 22.8223 7.92656 21.5625 9.5 21.5625C11.0734 21.5625 12.35 22.8223 12.35 24.375C12.35 25.9277 11.0734 27.1875 9.5 27.1875ZM28.5 27.1875C26.9266 27.1875 25.65 25.9277 25.65 24.375C25.65 22.8223 26.9266 21.5625 28.5 21.5625C30.0734 21.5625 31.35 22.8223 31.35 24.375C31.35 25.9277 30.0734 27.1875 28.5 27.1875ZM33.25 15H24.7V8.4375H27.3184L33.25 14.291V15Z" fill="black"/>
</svg>
